<svg width="641" height="128" viewBox="0 0 641 128" fill="none" xmlns="http://www.w3.org/2000/svg">
<path d="M7.04031 7.31535H33.522C36.0021 7.31535 37.3622 6.02012 37.3622 3.65821C37.3622 1.29631 36.0021 0.00106812 33.522 0.00106812H7.04031C4.56016 0.00106812 3.20007 1.29631 3.20007 3.65821C3.20007 6.02012 4.56016 7.31535 7.04031 7.31535Z" fill="#FEFEFE"/>
<path d="M7.04031 17.3712H33.522C36.0021 17.3712 37.3622 16.0759 37.3622 13.714C37.3622 11.3521 36.0021 10.0569 33.522 10.0569H7.04031C4.56016 10.0569 3.20007 11.3521 3.20007 13.714C3.20007 16.0759 4.56016 17.3712 7.04031 17.3712Z" fill="#FEFEFE"/>
<path d="M7.04031 27.4288H33.522C36.0021 27.4288 37.3622 26.1336 37.3622 23.7717C37.3622 21.4098 36.0021 20.1145 33.522 20.1145H7.04031C4.56016 20.1145 3.20007 21.4098 3.20007 23.7717C3.20007 26.1336 4.56016 27.4288 7.04031 27.4288Z" fill="#FEFEFE"/>
<path d="M7.04031 37.4865H33.522C36.0021 37.4865 37.3622 36.1912 37.3622 33.8293C37.3622 31.4674 36.0021 30.1722 33.522 30.1722H7.04031C4.56016 30.1722 3.20007 31.4674 3.20007 33.8293C3.20007 36.1912 4.56016 37.4865 7.04031 37.4865Z" fill="#FEFEFE"/>
<path d="M7.04031 47.5441H41.4425C43.9226 47.5441 45.2827 46.2489 45.2827 43.887C45.2827 41.5251 43.9226 40.2299 41.4425 40.2299H7.04031C4.56016 40.2299 3.20007 41.5251 3.20007 43.887C3.20007 46.2489 4.56016 47.5441 7.04031 47.5441Z" fill="#FEFEFE"/>
<path d="M30.3225 57.5999C32.8027 57.5999 34.1628 56.3047 34.1628 53.9428C34.1628 51.5809 32.8027 50.2857 30.3225 50.2857H3.84085C1.3607 50.2857 0.000610352 51.5809 0.000610352 53.9428C0.000610352 56.3047 1.3607 57.5999 3.84085 57.5999H30.3225Z" fill="#FEFEFE"/>
<path d="M7.04031 67.6576H33.522C36.0021 67.6576 37.3622 66.3624 37.3622 64.0005C37.3622 61.6386 36.0021 60.3433 33.522 60.3433H7.04031C4.56016 60.3433 3.20007 61.6386 3.20007 64.0005C3.20007 66.3624 4.56016 67.6576 7.04031 67.6576Z" fill="#FEFEFE"/>
<path d="M41.1242 74.0581C41.1242 71.6962 39.7641 70.401 37.2839 70.401H10.8023C8.32212 70.401 6.96204 71.6962 6.96204 74.0581C6.96204 76.42 8.32212 77.7153 10.8023 77.7153H37.2839C39.7641 77.7153 41.1242 76.42 41.1242 74.0581Z" fill="#FEFEFE"/>
<path d="M7.04031 87.7729H33.522C36.0021 87.7729 37.3622 86.4777 37.3622 84.1158C37.3622 81.7539 36.0021 80.4587 33.522 80.4587H7.04031C4.56016 80.4587 3.20007 81.7539 3.20007 84.1158C3.20007 86.4777 4.56016 87.7729 7.04031 87.7729Z" fill="#FEFEFE"/>
<path d="M39.2823 94.1716C39.2823 91.8097 37.9222 90.5144 35.4421 90.5144H7.04031C4.56016 90.5144 3.20007 91.8097 3.20007 94.1716C3.20007 96.5335 4.56016 97.8287 7.04031 97.8287H35.4421C37.9222 97.8287 39.2823 96.5335 39.2823 94.1716Z" fill="#FEFEFE"/>
<path d="M20.3223 104.229C20.3223 106.591 21.6824 107.886 24.1625 107.886H153.931C156.411 107.886 157.771 106.591 157.771 104.229C157.771 101.867 156.411 100.572 153.931 100.572H24.1625C21.6824 100.572 20.3223 101.867 20.3223 104.229Z" fill="#FEFEFE"/>
<path d="M129.769 114.287C129.769 111.925 128.409 110.63 125.929 110.63H16.0819C13.6018 110.63 12.2417 111.925 12.2417 114.287C12.2417 116.649 13.6018 117.944 16.0819 117.944H125.929C128.409 117.944 129.769 116.649 129.769 114.287Z" fill="#FEFEFE"/>
<path d="M111.528 120.686H30.4832C28.003 120.686 26.6429 121.981 26.6429 124.343C26.6429 126.705 28.003 128 30.4832 128H111.528C114.008 128 115.368 126.705 115.368 124.343C115.368 121.981 114.008 120.686 111.528 120.686Z" fill="#FEFEFE"/>
<path d="M102.488 94.1716C102.488 96.5335 103.848 97.8287 106.328 97.8287H134.73C137.21 97.8287 138.57 96.5335 138.57 94.1716C138.57 91.8097 137.21 90.5144 134.73 90.5144H106.328C103.848 90.5144 102.488 91.8097 102.488 94.1716Z" fill="#FEFEFE"/>
<path d="M108.648 7.31535H154.571C157.051 7.31535 158.411 6.02012 158.411 3.65821C158.411 1.29631 157.051 0.00106812 154.571 0.00106812H108.648C106.168 0.00106812 104.808 1.29631 104.808 3.65821C104.808 6.02012 106.168 7.31535 108.648 7.31535Z" fill="#FEFEFE"/>
<path d="M108.648 17.3712H162.812C165.292 17.3712 166.652 16.0759 166.652 13.714C166.652 11.3521 165.292 10.0569 162.812 10.0569H108.648C106.168 10.0569 104.808 11.3521 104.808 13.714C104.808 16.0759 106.168 17.3712 108.648 17.3712Z" fill="#FEFEFE"/>
<path d="M108.648 27.4288H135.13C137.61 27.4288 138.97 26.1336 138.97 23.7717C138.97 21.4098 137.61 20.1145 135.13 20.1145H108.648C106.168 20.1145 104.808 21.4098 104.808 23.7717C104.808 26.1336 106.168 27.4288 108.648 27.4288Z" fill="#FEFEFE"/>
<path d="M108.648 37.4865H179.373C181.853 37.4865 183.213 36.1912 183.213 33.8293C183.213 31.4674 181.853 30.1722 179.373 30.1722H108.648C106.168 30.1722 104.808 31.4674 104.808 33.8293C104.808 36.1912 106.168 37.4865 108.648 37.4865Z" fill="#FEFEFE"/>
<path d="M108.648 47.5441H187.613C190.093 47.5441 191.453 46.2489 191.453 43.887C191.453 41.5251 190.093 40.2299 187.613 40.2299H108.648C106.168 40.2299 104.808 41.5251 104.808 43.887C104.808 46.2489 106.168 47.5441 108.648 47.5441Z" fill="#FEFEFE"/>
<path d="M108.648 57.5999H154.011C156.491 57.5999 157.851 56.3047 157.851 53.9428C157.851 51.5809 156.491 50.2857 154.011 50.2857H108.648C106.168 50.2857 104.808 51.5809 104.808 53.9428C104.808 56.3047 106.168 57.5999 108.648 57.5999Z" fill="#FEFEFE"/>
<path d="M108.648 67.6576H154.011C156.491 67.6576 157.851 66.3624 157.851 64.0005C157.851 61.6386 156.491 60.3433 154.011 60.3433H108.648C106.168 60.3433 104.808 61.6386 104.808 64.0005C104.808 66.3624 106.168 67.6576 108.648 67.6576Z" fill="#FEFEFE"/>
<path d="M94.5673 77.7153H115.929C118.409 77.7153 119.769 76.42 119.769 74.0581C119.769 71.6962 118.409 70.401 115.929 70.401H94.5673C92.0871 70.401 90.7271 71.6962 90.7271 74.0581C90.7271 76.42 92.0871 77.7153 94.5673 77.7153Z" fill="#FEFEFE"/>
<path d="M104.808 84.1158C104.808 86.4777 106.168 87.7729 108.648 87.7729H154.011C156.491 87.7729 157.851 86.4777 157.851 84.1158C157.851 81.7539 156.491 80.4587 154.011 80.4587H108.648C106.168 80.4587 104.808 81.7539 104.808 84.1158Z" fill="#FEFEFE"/>
<path d="M143.449 23.7717C143.449 26.1336 144.809 27.4288 147.289 27.4288H190.892C193.372 27.4288 194.732 26.1336 194.732 23.7717C194.732 21.4098 193.372 20.1145 190.892 20.1145H147.289C144.809 20.1145 143.449 21.4098 143.449 23.7717Z" fill="#FEFEFE"/>
<path d="M154.01 77.7153C156.49 77.7153 157.85 76.42 157.85 74.0581C157.85 71.6962 156.49 70.401 154.01 70.401H127.528C125.048 70.401 123.688 71.6962 123.688 74.0581C123.688 76.42 125.048 77.7153 127.528 77.7153H154.01Z" fill="#FEFEFE"/>
<path d="M166.012 94.1716C166.012 91.8097 164.652 90.5144 162.172 90.5144H146.651C144.17 90.5144 142.81 91.8097 142.81 94.1716C142.81 96.5335 144.17 97.8287 146.651 97.8287H162.172C164.652 97.8287 166.012 96.5335 166.012 94.1716Z" fill="#FEFEFE"/>
<path d="M164.731 110.63H138.25C135.77 110.63 134.409 111.925 134.409 114.287C134.409 116.649 135.77 117.944 138.25 117.944H164.731C167.212 117.944 168.572 116.649 168.572 114.287C168.572 111.925 167.212 110.63 164.731 110.63Z" fill="#FEFEFE"/>
<path d="M154.01 120.686H127.528C125.048 120.686 123.688 121.981 123.688 124.343C123.688 126.705 125.048 128 127.528 128H154.01C156.49 128 157.85 126.705 157.85 124.343C157.85 121.981 156.49 120.686 154.01 120.686Z" fill="#FEFEFE"/>
<path d="M162.651 53.9428C162.651 56.3047 164.011 57.5999 166.492 57.5999H195.853C198.334 57.5999 199.694 56.3047 199.694 53.9428C199.694 51.5809 198.334 50.2857 195.853 50.2857H166.492C164.011 50.2857 162.651 51.5809 162.651 53.9428Z" fill="#FEFEFE"/>
<path d="M207.935 64.0005C207.935 61.6386 206.574 60.3433 204.094 60.3433H174.732C172.252 60.3433 170.892 61.6386 170.892 64.0005C170.892 66.3624 172.252 67.6576 174.732 67.6576H204.094C206.574 67.6576 207.935 66.3624 207.935 64.0005Z" fill="#FEFEFE"/>
<path d="M216.173 74.0581C216.173 71.6962 214.813 70.401 212.333 70.401H182.971C180.491 70.401 179.131 71.6962 179.131 74.0581C179.131 76.42 180.491 77.7153 182.971 77.7153H212.333C214.813 77.7153 216.173 76.42 216.173 74.0581Z" fill="#FEFEFE"/>
<path d="M255.136 84.1158C255.136 81.7539 253.776 80.4587 251.296 80.4587H191.212C188.732 80.4587 187.372 81.7539 187.372 84.1158C187.372 86.4777 188.732 87.7729 191.212 87.7729H251.296C253.776 87.7729 255.136 86.4777 255.136 84.1158Z" fill="#FEFEFE"/>
<path d="M255.136 94.1716C255.136 91.8097 253.776 90.5144 251.296 90.5144H199.613C197.133 90.5144 195.773 91.8097 195.773 94.1716C195.773 96.5335 197.133 97.8287 199.613 97.8287H251.296C253.776 97.8287 255.136 96.5335 255.136 94.1716Z" fill="#FEFEFE"/>
<path d="M251.297 110.63H216.174C213.694 110.63 212.334 111.925 212.334 114.287C212.334 116.649 213.694 117.944 216.174 117.944H251.297C253.777 117.944 255.137 116.649 255.137 114.287C255.137 111.925 253.777 110.63 251.297 110.63Z" fill="#FEFEFE"/>
<path d="M251.297 120.686H224.415C221.935 120.686 220.575 121.981 220.575 124.343C220.575 126.705 221.935 128 224.415 128H251.297C253.777 128 255.137 126.705 255.137 124.343C255.137 121.981 253.777 120.686 251.297 120.686Z" fill="#FEFEFE"/>
<path d="M224.816 7.31535H251.297C253.777 7.31535 255.138 6.02012 255.138 3.65821C255.138 1.29631 253.777 0.00106812 251.297 0.00106812H224.816C222.335 0.00106812 220.975 1.29631 220.975 3.65821C220.975 6.02012 222.335 7.31535 224.816 7.31535Z" fill="#FEFEFE"/>
<path d="M224.816 17.3712H251.297C253.777 17.3712 255.138 16.0759 255.138 13.714C255.138 11.3521 253.777 10.0569 251.297 10.0569H224.816C222.335 10.0569 220.975 11.3521 220.975 13.714C220.975 16.0759 222.335 17.3712 224.816 17.3712Z" fill="#FEFEFE"/>
<path d="M224.816 27.4288H251.297C253.777 27.4288 255.138 26.1336 255.138 23.7717C255.138 21.4098 253.777 20.1145 251.297 20.1145H224.816C222.335 20.1145 220.975 21.4098 220.975 23.7717C220.975 26.1336 222.335 27.4288 224.816 27.4288Z" fill="#FEFEFE"/>
<path d="M224.816 37.4865H320.582C323.062 37.4865 324.422 36.1912 324.422 33.8293C324.422 31.4674 323.062 30.1722 320.582 30.1722H224.816C222.335 30.1722 220.975 31.4674 220.975 33.8293C220.975 36.1912 222.335 37.4865 224.816 37.4865Z" fill="#FEFEFE"/>
<path d="M224.816 47.5441H251.297C253.777 47.5441 255.138 46.2489 255.138 43.887C255.138 41.5251 253.777 40.2299 251.297 40.2299H224.816C222.335 40.2299 220.975 41.5251 220.975 43.887C220.975 46.2489 222.335 47.5441 224.816 47.5441Z" fill="#FEFEFE"/>
<path d="M224.816 57.5999H251.297C253.777 57.5999 255.138 56.3047 255.138 53.9428C255.138 51.5809 253.777 50.2857 251.297 50.2857H224.816C222.335 50.2857 220.975 51.5809 220.975 53.9428C220.975 56.3047 222.335 57.5999 224.816 57.5999Z" fill="#FEFEFE"/>
<path d="M224.816 67.6576H289.14C291.62 67.6576 292.98 66.3624 292.98 64.0005C292.98 61.6386 291.62 60.3433 289.14 60.3433H224.816C222.335 60.3433 220.975 61.6386 220.975 64.0005C220.975 66.3624 222.335 67.6576 224.816 67.6576Z" fill="#FEFEFE"/>
<path d="M224.816 77.7153H251.297C253.777 77.7153 255.138 76.42 255.138 74.0581C255.138 71.6962 253.777 70.401 251.297 70.401H224.816C222.335 70.401 220.975 71.6962 220.975 74.0581C220.975 76.42 222.335 77.7153 224.816 77.7153Z" fill="#FEFEFE"/>
<path d="M262.896 7.31535H289.218C291.698 7.31535 293.058 6.02012 293.058 3.65821C293.058 1.29631 291.698 0.00106812 289.218 0.00106812H262.896C260.416 0.00106812 259.056 1.29631 259.056 3.65821C259.056 6.02012 260.416 7.31535 262.896 7.31535Z" fill="#FEFEFE"/>
<path d="M262.896 17.3712H289.218C291.698 17.3712 293.058 16.0759 293.058 13.714C293.058 11.3521 291.698 10.0569 289.218 10.0569H262.896C260.416 10.0569 259.056 11.3521 259.056 13.714C259.056 16.0759 260.416 17.3712 262.896 17.3712Z" fill="#FEFEFE"/>
<path d="M262.896 27.4288H284.337C286.818 27.4288 288.178 26.1336 288.178 23.7717C288.178 21.4098 286.818 20.1145 284.337 20.1145H262.896C260.416 20.1145 259.056 21.4098 259.056 23.7717C259.056 26.1336 260.416 27.4288 262.896 27.4288Z" fill="#FEFEFE"/>
<path d="M262.896 47.5441H317.94C320.42 47.5441 321.78 46.2489 321.78 43.887C321.78 41.5251 320.42 40.2299 317.94 40.2299H262.896C260.416 40.2299 259.056 41.5251 259.056 43.887C259.056 46.2489 260.416 47.5441 262.896 47.5441Z" fill="#FEFEFE"/>
<path d="M262.896 57.5999H317.94C320.42 57.5999 321.78 56.3047 321.78 53.9428C321.78 51.5809 320.42 50.2857 317.94 50.2857H262.896C260.416 50.2857 259.056 51.5809 259.056 53.9428C259.056 56.3047 260.416 57.5999 262.896 57.5999Z" fill="#FEFEFE"/>
<path d="M262.896 90.5144C260.416 90.5144 259.056 91.8097 259.056 94.1716C259.056 96.5335 260.416 97.8287 262.896 97.8287H289.218C291.698 97.8287 293.058 96.5335 293.058 94.1716C293.058 91.8097 291.698 90.5144 289.218 90.5144H262.896Z" fill="#FEFEFE"/>
<path d="M289.14 110.63H262.818C260.338 110.63 258.978 111.925 258.978 114.287C258.978 116.649 260.338 117.944 262.818 117.944H289.14C291.62 117.944 292.98 116.649 292.98 114.287C292.98 111.925 291.62 110.63 289.14 110.63Z" fill="#FEFEFE"/>
<path d="M289.14 120.686H262.818C260.338 120.686 258.978 121.981 258.978 124.343C258.978 126.705 260.338 128 262.818 128H289.14C291.62 128 292.98 126.705 292.98 124.343C292.98 121.981 291.62 120.686 289.14 120.686Z" fill="#FEFEFE"/>
<path d="M298.978 67.6576H313.059C315.539 67.6576 316.9 66.3624 316.9 64.0005C316.9 61.6386 315.539 60.3433 313.059 60.3433H298.978C296.498 60.3433 295.138 61.6386 295.138 64.0005C295.138 66.3624 296.498 67.6576 298.978 67.6576Z" fill="#FEFEFE"/>
<path d="M288.258 70.401H269.137C266.657 70.401 265.297 71.6962 265.297 74.0581C265.297 76.42 266.657 77.7153 269.137 77.7153H314.82C317.3 77.7153 318.66 76.42 318.66 74.0581C318.66 71.6962 317.3 70.401 314.82 70.401H288.338H288.258Z" fill="#FEFEFE"/>
<path d="M321.78 84.1158C321.78 81.7539 320.42 80.4587 317.94 80.4587H262.896C260.416 80.4587 259.056 81.7539 259.056 84.1158C259.056 86.4777 260.416 87.7729 262.896 87.7729H317.94C320.42 87.7729 321.78 86.4777 321.78 84.1158Z" fill="#FEFEFE"/>
<path d="M299.539 97.8287H327.941C330.421 97.8287 331.781 96.5335 331.781 94.1716C331.781 91.8097 330.421 90.5144 327.941 90.5144H299.539C297.059 90.5144 295.699 91.8097 295.699 94.1716C295.699 96.5335 297.059 97.8287 299.539 97.8287Z" fill="#FEFEFE"/>
<path d="M291.218 23.7717C291.218 26.1336 292.578 27.4288 295.058 27.4288H406.105C408.585 27.4288 409.945 26.1336 409.945 23.7717C409.945 21.4098 408.585 20.1145 406.105 20.1145H295.058C292.578 20.1145 291.218 21.4098 291.218 23.7717Z" fill="#FEFEFE"/>
<path d="M301.219 17.3712H408.026C410.506 17.3712 411.866 16.0759 411.866 13.714C411.866 11.3521 410.506 10.0569 408.026 10.0569H301.219C298.739 10.0569 297.379 11.3521 297.379 13.714C297.379 16.0759 298.739 17.3712 301.219 17.3712Z" fill="#FEFEFE"/>
<path d="M400.585 110.63H301.219C298.739 110.63 297.379 111.925 297.379 114.287C297.379 116.649 298.739 117.944 301.219 117.944H400.585C403.065 117.944 404.425 116.649 404.425 114.287C404.425 111.925 403.065 110.63 400.585 110.63Z" fill="#FEFEFE"/>
<path d="M315.62 7.31535H393.545C396.025 7.31535 397.385 6.02012 397.385 3.65821C397.385 1.29631 396.025 0.00106812 393.545 0.00106812H315.62C313.14 0.00106812 311.78 1.29631 311.78 3.65821C311.78 6.02012 313.14 7.31535 315.62 7.31535Z" fill="#FEFEFE"/>
<path d="M393.625 120.686H315.7C313.22 120.686 311.86 121.981 311.86 124.343C311.86 126.705 313.22 128 315.7 128H393.625C396.105 128 397.465 126.705 397.465 124.343C397.465 121.981 396.105 120.686 393.625 120.686Z" fill="#FEFEFE"/>
<path d="M388.425 97.8287H416.827C419.307 97.8287 420.667 96.5335 420.667 94.1716C420.667 91.8097 419.307 90.5144 416.827 90.5144H388.425C385.945 90.5144 384.585 91.8097 384.585 94.1716C384.585 96.5335 385.945 97.8287 388.425 97.8287Z" fill="#FEFEFE"/>
<path d="M413.067 47.5441C415.547 47.5441 416.907 46.2489 416.907 43.887C416.907 41.5251 415.547 40.2299 413.067 40.2299H386.585C384.105 40.2299 382.745 41.5251 382.745 43.887C382.745 46.2489 384.105 47.5441 386.585 47.5441H413.067Z" fill="#FEFEFE"/>
<path d="M421.867 7.31535H541.955C544.435 7.31535 545.795 6.02012 545.795 3.65821C545.795 1.29631 544.435 0.00106812 541.955 0.00106812H421.867C419.387 0.00106812 418.027 1.29631 418.027 3.65821C418.027 6.02012 419.387 7.31535 421.867 7.31535Z" fill="#FEFEFE"/>
<path d="M421.867 17.3712H453.629C456.109 17.3712 457.469 16.0759 457.469 13.714C457.469 11.3521 456.109 10.0569 453.629 10.0569H421.867C419.387 10.0569 418.027 11.3521 418.027 13.714C418.027 16.0759 419.387 17.3712 421.867 17.3712Z" fill="#FEFEFE"/>
<path d="M444.109 30.1722H417.787C417.787 30.1722 417.467 30.1722 417.307 30.1722C417.147 30.1722 416.987 30.1722 416.827 30.1722H388.425C385.945 30.1722 384.585 31.4674 384.585 33.8293C384.585 36.1912 385.945 37.4865 388.425 37.4865H416.827C416.827 37.4865 417.147 37.4865 417.307 37.4865C417.467 37.4865 417.627 37.4865 417.787 37.4865H444.109C446.589 37.4865 447.949 36.1912 447.949 33.8293C447.949 31.4674 446.589 30.1722 444.109 30.1722Z" fill="#FEFEFE"/>
<path d="M453.388 43.887C453.388 41.5251 452.028 40.2299 449.548 40.2299H423.226C420.746 40.2299 419.386 41.5251 419.386 43.887C419.386 46.2489 420.746 47.5441 423.226 47.5441H449.548C452.028 47.5441 453.388 46.2489 453.388 43.887Z" fill="#FEFEFE"/>
<path d="M448.189 50.2857H421.867C419.387 50.2857 418.027 51.5809 418.027 53.9428C418.027 56.3047 419.387 57.5999 421.867 57.5999H448.189C450.669 57.5999 452.029 56.3047 452.029 53.9428C452.029 51.5809 450.669 50.2857 448.189 50.2857Z" fill="#FEFEFE"/>
<path d="M448.189 60.3433H421.867C419.387 60.3433 418.027 61.6386 418.027 64.0005C418.027 66.3624 419.387 67.6576 421.867 67.6576H448.189C450.669 67.6576 452.029 66.3624 452.029 64.0005C452.029 61.6386 450.669 60.3433 448.189 60.3433Z" fill="#FEFEFE"/>
<path d="M452.029 74.0581C452.029 71.6962 450.669 70.401 448.189 70.401H421.867C419.387 70.401 418.027 71.6962 418.027 74.0581C418.027 76.42 419.387 77.7153 421.867 77.7153H448.189C450.669 77.7153 452.029 76.42 452.029 74.0581Z" fill="#FEFEFE"/>
<path d="M449.228 84.1158C449.228 81.7539 447.868 80.4587 445.388 80.4587H419.066C419.066 80.4587 418.586 80.4587 418.346 80.5348C418.106 80.5348 417.866 80.4587 417.626 80.4587H391.144C388.664 80.4587 387.304 81.7539 387.304 84.1158C387.304 86.4777 388.664 87.7729 391.144 87.7729H417.626C417.626 87.7729 418.106 87.7729 418.346 87.6967C418.586 87.6967 418.826 87.7729 419.066 87.7729H445.388C447.868 87.7729 449.228 86.4777 449.228 84.1158Z" fill="#FEFEFE"/>
<path d="M453.468 90.5144H427.147C424.666 90.5144 423.306 91.8097 423.306 94.1716C423.306 96.5335 424.666 97.8287 427.147 97.8287H453.468C455.948 97.8287 457.309 96.5335 457.309 94.1716C457.309 91.8097 455.948 90.5144 453.468 90.5144Z" fill="#FEFEFE"/>
<path d="M440.588 107.886C443.068 107.886 444.428 106.591 444.428 104.229C444.428 101.867 443.068 100.572 440.588 100.572H414.267C414.267 100.572 414.187 100.572 414.107 100.572C414.107 100.572 414.027 100.572 413.947 100.572H207.934C205.454 100.572 204.093 101.867 204.093 104.229C204.093 106.591 205.454 107.886 207.934 107.886H413.947C413.947 107.886 414.027 107.886 414.107 107.886C414.107 107.886 414.187 107.886 414.267 107.886H440.588Z" fill="#FEFEFE"/>
<path d="M448.189 110.63H421.867C419.387 110.63 418.027 111.925 418.027 114.287C418.027 116.649 419.387 117.944 421.867 117.944H448.189C450.669 117.944 452.029 116.649 452.029 114.287C452.029 111.925 450.669 110.63 448.189 110.63Z" fill="#FEFEFE"/>
<path d="M448.189 120.686H421.867C419.387 120.686 418.027 121.981 418.027 124.343C418.027 126.705 419.387 128 421.867 128H448.189C450.669 128 452.029 126.705 452.029 124.343C452.029 121.981 450.669 120.686 448.189 120.686Z" fill="#FEFEFE"/>
<path d="M541.955 10.0569H464.67C462.19 10.0569 460.83 11.3521 460.83 13.714C460.83 16.0759 462.19 17.3712 464.67 17.3712H541.955C544.435 17.3712 545.796 16.0759 545.796 13.714C545.796 11.3521 544.435 10.0569 541.955 10.0569Z" fill="#FEFEFE"/>
<path d="M541.955 27.4288C544.435 27.4288 545.796 26.1336 545.796 23.7717C545.796 21.4098 544.435 20.1145 541.955 20.1145H418.668C416.187 20.1145 414.827 21.4098 414.827 23.7717C414.827 26.1336 416.187 27.4288 418.668 27.4288H541.955Z" fill="#FEFEFE"/>
<path d="M472.831 37.4865H499.553C502.033 37.4865 503.393 36.1912 503.393 33.8293C503.393 31.4674 502.033 30.1722 499.553 30.1722H472.831C470.351 30.1722 468.991 31.4674 468.991 33.8293C468.991 36.1912 470.351 37.4865 472.831 37.4865Z" fill="#FEFEFE"/>
<path d="M472.831 47.5441H499.553C502.033 47.5441 503.393 46.2489 503.393 43.887C503.393 41.5251 502.033 40.2299 499.553 40.2299H472.831C470.351 40.2299 468.991 41.5251 468.991 43.887C468.991 46.2489 470.351 47.5441 472.831 47.5441Z" fill="#FEFEFE"/>
<path d="M501.393 50.2857H474.671C472.191 50.2857 470.831 51.5809 470.831 53.9428C470.831 56.3047 472.191 57.5999 474.671 57.5999H501.393C503.873 57.5999 505.233 56.3047 505.233 53.9428C505.233 51.5809 503.873 50.2857 501.393 50.2857Z" fill="#FEFEFE"/>
<path d="M472.831 67.6576H499.553C502.033 67.6576 503.393 66.3624 503.393 64.0005C503.393 61.6386 502.033 60.3433 499.553 60.3433H472.831C470.351 60.3433 468.991 61.6386 468.991 64.0005C468.991 66.3624 470.351 67.6576 472.831 67.6576Z" fill="#FEFEFE"/>
<path d="M498.351 77.7153C500.832 77.7153 502.192 76.42 502.192 74.0581C502.192 71.6962 500.832 70.401 498.351 70.401H471.63C469.15 70.401 467.79 71.6962 467.79 74.0581C467.79 76.42 469.15 77.7153 471.63 77.7153H498.351Z" fill="#FEFEFE"/>
<path d="M499.553 80.4587H472.831C470.351 80.4587 468.991 81.7539 468.991 84.1158C468.991 86.4777 470.351 87.7729 472.831 87.7729H499.553C502.033 87.7729 503.393 86.4777 503.393 84.1158C503.393 81.7539 502.033 80.4587 499.553 80.4587Z" fill="#FEFEFE"/>
<path d="M499.553 90.5144H472.831C470.351 90.5144 468.991 91.8097 468.991 94.1716C468.991 96.5335 470.351 97.8287 472.831 97.8287H499.553C502.033 97.8287 503.393 96.5335 503.393 94.1716C503.393 91.8097 502.033 90.5144 499.553 90.5144Z" fill="#FEFEFE"/>
<path d="M501.313 100.572H472.831C470.351 100.572 468.991 101.867 468.991 104.229C468.991 106.591 470.351 107.886 472.831 107.886H501.313C503.793 107.886 505.153 106.591 505.153 104.229C505.153 101.867 503.793 100.572 501.313 100.572Z" fill="#FEFEFE"/>
<path d="M499.553 110.63H472.831C470.351 110.63 468.991 111.925 468.991 114.287C468.991 116.649 470.351 117.944 472.831 117.944H499.553C502.033 117.944 503.393 116.649 503.393 114.287C503.393 111.925 502.033 110.63 499.553 110.63Z" fill="#FEFEFE"/>
<path d="M499.553 120.686H472.831C470.351 120.686 468.991 121.981 468.991 124.343C468.991 126.705 470.351 128 472.831 128H499.553C502.033 128 503.393 126.705 503.393 124.343C503.393 121.981 502.033 120.686 499.553 120.686Z" fill="#FEFEFE"/>
<path d="M552.356 33.8293C552.356 31.4674 550.995 30.1722 548.515 30.1722H518.353C515.873 30.1722 514.513 31.4674 514.513 33.8293C514.513 36.1912 515.873 37.4865 518.353 37.4865H548.515C550.995 37.4865 552.356 36.1912 552.356 33.8293Z" fill="#FEFEFE"/>
<path d="M550.195 47.5441C552.675 47.5441 554.035 46.2489 554.035 43.887C554.035 41.5251 552.675 40.2299 550.195 40.2299H525.553C523.073 40.2299 521.713 41.5251 521.713 43.887C521.713 46.2489 523.073 47.5441 525.553 47.5441H550.195Z" fill="#FEFEFE"/>
<path d="M559.955 53.9428C559.955 51.5809 558.595 50.2857 556.114 50.2857H526.913C524.432 50.2857 523.072 51.5809 523.072 53.9428C523.072 56.3047 524.432 57.5999 526.913 57.5999H556.114C558.595 57.5999 559.955 56.3047 559.955 53.9428Z" fill="#FEFEFE"/>
<path d="M598.918 60.3433H537.874C535.394 60.3433 534.034 61.6386 534.034 64.0005C534.034 66.3624 535.394 67.6576 537.874 67.6576H598.918C601.398 67.6576 602.758 66.3624 602.758 64.0005C602.758 61.6386 601.398 60.3433 598.918 60.3433Z" fill="#FEFEFE"/>
<path d="M592.597 70.401H539.634C537.154 70.401 535.794 71.6962 535.794 74.0581C535.794 76.42 537.154 77.7153 539.634 77.7153H592.597C595.078 77.7153 596.438 76.42 596.438 74.0581C596.438 71.6962 595.078 70.401 592.597 70.401Z" fill="#FEFEFE"/>
<path d="M586.277 80.4587H545.955C543.475 80.4587 542.115 81.7539 542.115 84.1158C542.115 86.4777 543.475 87.7729 545.955 87.7729H586.277C588.757 87.7729 590.118 86.4777 590.118 84.1158C590.118 81.7539 588.757 80.4587 586.277 80.4587Z" fill="#FEFEFE"/>
<path d="M583.558 94.1716C583.558 91.8097 582.197 90.5144 579.717 90.5144H552.436C549.956 90.5144 548.595 91.8097 548.595 94.1716C548.595 96.5335 549.956 97.8287 552.436 97.8287H579.717C582.197 97.8287 583.558 96.5335 583.558 94.1716Z" fill="#FEFEFE"/>
<path d="M576.037 100.572H552.836C550.356 100.572 548.996 101.867 548.996 104.229C548.996 106.591 550.356 107.886 552.836 107.886H576.037C578.518 107.886 579.878 106.591 579.878 104.229C579.878 101.867 578.518 100.572 576.037 100.572Z" fill="#FEFEFE"/>
<path d="M581.078 110.63H554.596C552.116 110.63 550.756 111.925 550.756 114.287C550.756 116.649 552.116 117.944 554.596 117.944H581.078C583.558 117.944 584.918 116.649 584.918 114.287C584.918 111.925 583.558 110.63 581.078 110.63Z" fill="#FEFEFE"/>
<path d="M579.318 120.686H552.836C550.356 120.686 548.996 121.981 548.996 124.343C548.996 126.705 550.356 128 552.836 128H579.318C581.798 128 583.158 126.705 583.158 124.343C583.158 121.981 581.798 120.686 579.318 120.686Z" fill="#FEFEFE"/>
<path d="M604.199 50.2857H578.357C575.877 50.2857 574.517 51.5809 574.517 53.9428C574.517 56.3047 575.877 57.5999 578.357 57.5999L604.199 57.5999C606.679 57.5999 608.039 56.3047 608.039 53.9428C608.039 51.5809 606.679 50.2857 604.199 50.2857Z" fill="#FEFEFE"/>
<path d="M611.639 40.2299H584.037C581.557 40.2299 580.197 41.5251 580.197 43.887C580.197 46.2489 581.557 47.5441 584.037 47.5441H611.639C614.119 47.5441 615.479 46.2489 615.479 43.887C615.479 41.5251 614.119 40.2299 611.639 40.2299Z" fill="#FEFEFE"/>
<path d="M608.199 30.1722H588.198C585.717 30.1722 584.357 31.4674 584.357 33.8293C584.357 36.1912 585.717 37.4865 588.198 37.4865H608.199C610.679 37.4865 612.039 36.1912 612.039 33.8293C612.039 31.4674 610.679 30.1722 608.199 30.1722Z" fill="#FEFEFE"/>
<path d="M626.04 20.1145H595.878C593.398 20.1145 592.038 21.4098 592.038 23.7717C592.038 26.1336 593.398 27.4288 595.878 27.4288H626.04C628.52 27.4288 629.88 26.1336 629.88 23.7717C629.88 21.4098 628.52 20.1145 626.04 20.1145Z" fill="#FEFEFE"/>
<path d="M629.08 10.0569H600.038C597.558 10.0569 596.198 11.3521 596.198 13.714C596.198 16.0759 597.558 17.3712 600.038 17.3712H629.08C631.56 17.3712 632.92 16.0759 632.92 13.714C632.92 11.3521 631.56 10.0569 629.08 10.0569Z" fill="#FEFEFE"/>
<path d="M632.2 0.00106812H606.439C603.959 0.00106812 602.599 1.29631 602.599 3.65821C602.599 6.02012 603.959 7.31535 606.439 7.31535H632.2C634.681 7.31535 636.041 6.02012 636.041 3.65821C636.041 1.29631 634.681 0.00106812 632.2 0.00106812Z" fill="#FEFEFE"/>
</svg>
